<svg xmlns="http://www.w3.org/2000/svg" viewBox="0 0 20.1 20.1"><path d="M67.3,99.9l.9-.5.7-.7a3,3,0,0,0,.2-1,1.7,1.7,0,0,0-.4-1.3,1.9,1.9,0,0,0-1.1-.8,1.8,1.8,0,0,0,.8-.6,2,2,0,0,0,.3-1.1,1.3,1.3,0,0,0-.2-.9,1,1,0,0,0-.5-.6l-.8-.4H62.4V100h4.9Zm-3.2-6.6h2.5l.3.3a.6.6,0,0,1,.1.4,1,1,0,0,1-.3.8l-.8.2H64.1V93.3Zm0,5.3V96.4H66a1.7,1.7,0,0,1,1,.3q.3.1.3.9a.9.9,0,0,1-.1.5l-.3.3-.4.2H64.1Z" transform="translate(-58.8 -86)"/><path d="M70.4,99.3l.9.6a2.7,2.7,0,0,0,1.3.2,3.3,3.3,0,0,0,1.7-.4,2.8,2.8,0,0,0,1-1.5H73.9c0,.2-.2.3-.4.5a1.3,1.3,0,0,1-.9.2,1.5,1.5,0,0,1-1-.3,1.8,1.8,0,0,1-.4-1.1h4.2a5.3,5.3,0,0,0-.1-1.3,3.7,3.7,0,0,0-.5-1.1,1.8,1.8,0,0,0-.9-.8,2.8,2.8,0,0,0-1.3-.3l-1.2.2-1,.7-.6,1a3.7,3.7,0,0,0-.2,1.2,5,5,0,0,0,.2,1.2Zm.9-3.2a.5.5,0,0,1,.2-.4.8.8,0,0,1,.4-.4h.6c.4,0,.8.1.9.3a1.3,1.3,0,0,1,.4,1H71.2C71.2,96.3,71.2,96.2,71.3,96.1Z" transform="translate(-58.8 -86)"/><rect x="12.1" y="6.5" width="3.3" height="0.79"/><path d="M58.8,86v20.1H79V86Zm18.9,18.9H60.1V87.2H77.7Z" transform="translate(-58.8 -86)"/></svg>