<svg xmlns="http://www.w3.org/2000/svg" xmlns:xlink="http://www.w3.org/1999/xlink" width="44" height="44" viewBox="0 0 16.5 16.1"><defs><style>.a{fill:none;}.b{clip-path:url(#a);}.c{fill:#80959b;}.d{fill:#06c5f9;}</style><clipPath id="a" transform="translate(0 -0.2)"><path class="a" d="M14.8,7.1a.3.3,0,0,0,.4,0h0l2-2.1a.2.2,0,0,0-.3-.3h0L15.3,6.3v-5A1.3,1.3,0,0,0,14,0H9.9a.3.3,0,0,0-.3.3c0,.1.1.2.3.2H14a.8.8,0,0,1,.7.8v5L13.1,4.7a.2.2,0,1,0-.3.3Z"/></clipPath></defs><path class="c" d="M8,1.2a.9.9,0,0,1,1,1v12a1,1,0,0,1-1,1H2a1,1,0,0,1-1-1V2.2a.9.9,0,0,1,1-1ZM2,.2a2,2,0,0,0-2,2v12a2,2,0,0,0,2,2H8a2,2,0,0,0,2-2V2.2a2,2,0,0,0-2-2Z" transform="translate(0 -0.2)"/><ellipse class="d" cx="3.1" cy="11.9" rx="0.8" ry="0.7"/><path class="d" d="M15.5,14.5a1,1,0,0,1-1,.9H2.5a.9.9,0,0,1-1-.8V9.4a1,1,0,0,1,1-.9h12a.9.9,0,0,1,1,.8Zm.9-5.2a1.9,1.9,0,0,0-2-1.7H2.4a1.8,1.8,0,0,0-2,1.7v5.2a1.9,1.9,0,0,0,2,1.7h12a1.8,1.8,0,0,0,2-1.7Z" transform="translate(0 -0.2)"/></svg>