<svg xmlns="http://www.w3.org/2000/svg" viewBox="0 0 214 187.3"><defs><style>.a{fill:#00bdff;}</style></defs><path class="a" d="M86.5,155v10.5a2.3,2.3,0,0,0,2.1,2.1H97a2.1,2.1,0,0,0,2.1-2.1h0V155h4.2v10.5a2.3,2.3,0,0,0,2.1,2.1h8.4a2.1,2.1,0,0,0,2.1-2.1h0V155h.7c16.7,0,28.7-8.7,28.7-23.7,0-12.6-8.5-19.5-18.4-20.5v-.7c8.2-2,14.2-8.2,14.2-18.4,0-12.9-9.7-20.7-24.4-20.7h-.8V60.5a2.1,2.1,0,0,0-2.1-2.1h-8.4a2.3,2.3,0,0,0-2.1,2.1V71H98.5V60.5a2.1,2.1,0,0,0-2.1-2.1H88.6a2.3,2.3,0,0,0-2.1,2.1V71H69.8a2.1,2.1,0,0,0-2.1,2.1h0v8.3a2,2,0,0,0,1.9,2.1h6.5a6.4,6.4,0,0,1,6.2,6.3V136a6.3,6.3,0,0,1-6.3,6.3H69.8a2.1,2.1,0,0,0-2.1,2.1h0v8.4a2.1,2.1,0,0,0,2.1,2.1H86.5Zm12-71.5h14.4c7.7,0,12.1,4.2,12.1,11S120.2,106,109.3,106H98.5Zm0,34H114c9.5,0,14.7,4.9,14.7,12.8s-5.3,12.2-18.1,12.2H98.5Z" transform="translate(-1 1)"/><path class="a" d="M1,25.8A26.8,26.8,0,0,1,27.8-1H208.3a6.7,6.7,0,0,1,0,13.4h-6.7V39.1A13.4,13.4,0,0,1,215,52.5h0V166.2a20.1,20.1,0,0,1-20,20.1H34.5A33.5,33.5,0,0,1,1,152.8ZM14.4,48.9V152.8a20.1,20.1,0,0,0,20.1,20.1H195a6.7,6.7,0,0,0,6.6-6.7V52.5H27.8a26.4,26.4,0,0,1-13.4-3.6Zm0-23.1A13.4,13.4,0,0,0,27.7,39.1H188.3V12.4H27.8A13.4,13.4,0,0,0,14.4,25.8Z" transform="translate(-1 1)"/></svg>