<svg xmlns="http://www.w3.org/2000/svg" viewBox="0 0 48.1 77"><path d="M30.3,54v-.2a5.3,5.3,0,0,0,4.2-5.4c0-3.8-2.9-6.1-7.3-6.1H27V39.2a.6.6,0,0,0-.6-.6H23.9c-.4,0-.7.2-.7.6v3.1H21.8V39.2a.6.6,0,0,0-.6-.6H18.9c-.4,0-.7.2-.7.6v3.1h-5a.6.6,0,0,0-.6.6v2.5a.6.6,0,0,0,.6.6h1.9A1.8,1.8,0,0,1,17,47.8V61.5a1.9,1.9,0,0,1-1.9,1.8H13.2a.6.6,0,0,0-.6.6v2.5a.6.6,0,0,0,.6.6h5v3.1a.7.7,0,0,0,.7.6h2.5a.6.6,0,0,0,.6-.6V67.1h1.2v3.1a.7.7,0,0,0,.7.6h2.5a.6.6,0,0,0,.6-.6V67.1h.2c5,0,8.6-2.6,8.6-7A5.8,5.8,0,0,0,30.3,54Zm-8.5-8h4.3c2.3,0,3.6,1.2,3.6,3.2s-1.4,3.4-4.7,3.4H21.8Zm3.6,17.4H21.8V56h4.6c2.9,0,4.4,1.4,4.4,3.8S29.3,63.4,25.4,63.4Z"/><path d="M38.5,33.7V14.4a14.5,14.5,0,0,0-28.9,0V33.7A9.6,9.6,0,0,0,0,43.3V67.4A9.6,9.6,0,0,0,9.6,77H38.5a9.6,9.6,0,0,0,9.6-9.6V43.3A9.6,9.6,0,0,0,38.5,33.7ZM14.4,14.4a9.7,9.7,0,0,1,19.3,0V33.7H14.4Zm28.9,53a4.8,4.8,0,0,1-4.8,4.8H9.6a4.9,4.9,0,0,1-4.8-4.8V43.3a4.9,4.9,0,0,1,4.8-4.8H38.5a4.8,4.8,0,0,1,4.8,4.8Z"/></svg>